<svg xmlns="http://www.w3.org/2000/svg" xmlns:xlink="http://www.w3.org/1999/xlink" id="body_4" preserveAspectRatio="xMinYMin meet" viewBox="0 0 720 1040"><defs><clipPath id="1"><path d="M0 780L0 0L0 0L540 0L540 0L540 780L540 780L0 780z" /></clipPath><clipPath id="2"><path d="M0 0L540 0L540 0L540 295.74L540 295.74L0 295.74z" /></clipPath></defs><g transform="matrix(1.333333 0 0 1.333333 0 0)"><g><g clip-path="url(#1)"><path transform="matrix(1 0 0 -1 0 780)" d="M0 0L540 0L540 0L540 780L540 780L0 780z" stroke="none" fill="#FFFFFF" fill-rule="winding" /><g clip-path="url(#2)"><g transform="matrix(0.4795737 0 0 0.4799026 0 -88.72198)"><g transform="matrix(1 0 0 1 0 0)"><image x="0" y="0" xlink:href="img_09.png" width="1126" height="986" /></g></g></g></g></g></g></svg>