<svg xmlns="http://www.w3.org/2000/svg" xmlns:xlink="http://www.w3.org/1999/xlink" id="body_25" preserveAspectRatio="xMinYMin meet" viewBox="0 0 720 1040"><defs><clipPath id="1"><path d="M0 780L0 0L0 0L540 0L540 0L540 780L540 780L0 780z" /></clipPath><clipPath id="2"><path d="M151.08 434.94L247.079 434.94L247.079 434.94L247.079 338.94L247.079 338.94L151.08 338.94z" /></clipPath></defs><g transform="matrix(1.333333 0 0 1.333333 0 0)"><g><g clip-path="url(#1)"><path transform="matrix(1 0 0 -1 0 780)" d="M0 0L540 0L540 0L540 780L540 780L0 780z" stroke="none" fill="#ED7D31" fill-rule="winding" /><g transform="matrix(0.48 0 0 0.48 51.6 103.98)"><g transform="matrix(1 0 0 1 0 0)"><image x="0" y="0" xlink:href="img_02.png" width="907" height="145" /></g></g><g clip-path="url(#2)"><g transform="matrix(0.48 0 0 0.48 151.08 338.94)"><g transform="matrix(1 0 0 1 0 0)"><image x="0" y="0" xlink:href="img_48.png" width="200" height="200" /></g></g></g><g transform="matrix(0.48 0 0 0.48 292.14 338.94)"><g transform="matrix(1 0 0 1 0 0)"><image x="0" y="0" xlink:href="img_49.png" width="200" height="200" /></g></g></g></g></g></svg>