<svg xmlns="http://www.w3.org/2000/svg" xmlns:xlink="http://www.w3.org/1999/xlink" id="body_1" preserveAspectRatio="xMinYMin meet" viewBox="0 0 720 1040"><defs><clipPath id="1"><path d="M0 780L0 0L0 0L540 0L540 0L540 780L540 780L0 780z" /></clipPath><clipPath id="2"><path d="M0 0L540 0L540 0L540 779.97L540 779.97L0 779.97z" /></clipPath><clipPath id="3"><path d="M0 780L540 780L540 780L540 0L540 0L0 0z" /></clipPath><clipPath id="4"><path d="M280.2 135.575L286.2 135.575L286.2 135.575L286.2 129.275L286.2 129.275L280.2 129.275z" /></clipPath><clipPath id="5"><path d="M280.2 157.175L286.2 157.175L286.2 157.175L286.2 150.875L286.2 150.875L280.2 150.875z" /></clipPath><clipPath id="6"><path d="M280.2 178.775L286.2 178.775L286.2 178.775L286.2 172.475L286.2 172.475L280.2 172.475z" /></clipPath><clipPath id="7"><path d="M462.12 186.6L522.119 186.6L522.119 186.6L522.119 126.6L522.119 126.6L462.12 126.6z" /></clipPath></defs><g transform="matrix(1.333333 0 0 1.333333 0 0)"><g><g clip-path="url(#1)"><g clip-path="url(#2)"><g transform="matrix(0.759375 0 0 0.7594646 -313.2 6.103516E-05)"><g transform="matrix(1 0 0 1 0 0)"><image x="0" y="0" xlink:href="img_01.png" width="1536" height="1027" /></g></g></g><g transform="matrix(0.48 0 0 0.48 16.98 31.02002)"><g transform="matrix(1 0 0 1 0 0)"><image x="0" y="0" xlink:href="img_02.png" width="907" height="145" /></g></g><g clip-path="url(#3)"></g><g clip-path="url(#4)"><g transform="matrix(0.375 0 0 0.39375 280.2 129.2745)"><g transform="matrix(1 0 0 1 0 0)"><image x="0" y="0" xlink:href="img_03.png" width="16" height="16" /></g></g></g><g clip-path="url(#5)"><g transform="matrix(0.375 0 0 0.39375 280.2 150.8745)"><g transform="matrix(1 0 0 1 0 0)"><image x="0" y="0" xlink:href="img_03.png" width="16" height="16" /></g></g></g><g clip-path="url(#6)"><g transform="matrix(0.375 0 0 0.39375 280.2 172.4745)"><g transform="matrix(1 0 0 1 0 0)"><image x="0" y="0" xlink:href="img_03.png" width="16" height="16" /></g></g></g><g clip-path="url(#7)"><g transform="matrix(0.5 0 0 0.5 462.12 126.6)"><g transform="matrix(1 0 0 1 0 0)"><image x="0" y="0" xlink:href="img_04.png" width="120" height="120" /></g></g></g></g></g></g></svg>