<svg xmlns="http://www.w3.org/2000/svg" xmlns:xlink="http://www.w3.org/1999/xlink" id="body_11" preserveAspectRatio="xMinYMin meet" viewBox="0 0 720 1040"><defs><clipPath id="1"><path d="M0 780L0 0L0 0L540 0L540 0L540 780L540 780L0 780z" /></clipPath><clipPath id="2"><path d="M0 0L540 0L540 0L540 507.12L540 507.12L0 507.12z" /></clipPath></defs><g transform="matrix(1.333333 0 0 1.333333 0 0)"><g><g clip-path="url(#1)"><path transform="matrix(1 0 0 -1 0 780)" d="M0 0L540 0L540 0L540 780L540 780L0 780z" stroke="none" fill="#FFFFFF" fill-rule="winding" /><g clip-path="url(#2)"><g transform="matrix(0.7826087 0 0 0.7825926 0 -6.103516E-05)"><g transform="matrix(1 0 0 1 0 0)"><image x="0" y="0" xlink:href="img_23.png" width="690" height="648" /></g></g></g></g></g></g></svg>