<svg xmlns="http://www.w3.org/2000/svg" xmlns:xlink="http://www.w3.org/1999/xlink" id="body_13" preserveAspectRatio="xMinYMin meet" viewBox="0 0 720 1040"><defs><clipPath id="1"><path d="M0 780L0 0L0 0L540 0L540 0L540 780L540 780L0 780z" /></clipPath><clipPath id="2"><path d="M0 0L540 0L540 0L540 780L540 780L0 780z" /></clipPath></defs><g transform="matrix(1.333333 0 0 1.333333 0 0)"><g><g clip-path="url(#1)"><g clip-path="url(#2)"><g transform="matrix(0.8648438 0 0 0.7617188 -475.2 0)"><g transform="matrix(1 0 0 1 0 0)"><image x="0" y="0" xlink:href="img_26.png" width="1536" height="1024" /></g></g></g><g transform="matrix(0.49875 0 0 0.525 36.2 322.5937)"><g transform="matrix(1 0 0 1 0 0)"><image x="0" y="0" xlink:href="img_03.png" width="16" height="16" /></g></g><g transform="matrix(0.49875 0 0 0.525 36.2 351.3937)"><g transform="matrix(1 0 0 1 0 0)"><image x="0" y="0" xlink:href="img_03.png" width="16" height="16" /></g></g><g transform="matrix(0.49875 0 0 0.525 36.2 380.1937)"><g transform="matrix(1 0 0 1 0 0)"><image x="0" y="0" xlink:href="img_03.png" width="16" height="16" /></g></g><path transform="matrix(1 0 0 -1 0 780)" d="M28.98 519.66L180 519.66L180 519.66L180 491.58L180 491.58L28.98 491.58z" stroke="none" fill="#ED7D31" fill-rule="evenodd" /></g></g></g></svg>