<svg xmlns="http://www.w3.org/2000/svg" xmlns:xlink="http://www.w3.org/1999/xlink" id="body_21" preserveAspectRatio="xMinYMin meet" viewBox="0 0 720 1040"><defs><clipPath id="1"><path d="M0 780L0 0L0 0L540 0L540 0L540 780L540 780L0 780z" /></clipPath><clipPath id="2"><path d="M0 0L540 0L540 0L540 780L540 780L0 780z" /></clipPath><clipPath id="3"><path d="M36.2 603.333L44.18 603.333L44.18 603.333L44.18 594.932L44.18 594.932L36.2 594.932z" /></clipPath><clipPath id="4"><path d="M36.2 632.133L44.18 632.133L44.18 632.133L44.18 623.732L44.18 623.732L36.2 623.732z" /></clipPath><clipPath id="5"><path d="M36.2 660.933L44.18 660.933L44.18 660.933L44.18 652.532L44.18 652.532L36.2 652.532z" /></clipPath></defs><g transform="matrix(1.333333 0 0 1.333333 0 0)"><g><g clip-path="url(#1)"><g clip-path="url(#2)"><g transform="matrix(0.8700001 0 0 0.8666667 -43.2 0)"><g transform="matrix(1 0 0 1 0 0)"><image x="0" y="0" xlink:href="img_41.png" width="720" height="900" /></g></g></g><g clip-path="url(#3)"><g transform="matrix(0.49875 0 0 0.525 36.2 594.9325)"><g transform="matrix(1 0 0 1 0 0)"><image x="0" y="0" xlink:href="img_03.png" width="16" height="16" /></g></g></g><g clip-path="url(#4)"><g transform="matrix(0.49875 0 0 0.525 36.2 623.7325)"><g transform="matrix(1 0 0 1 0 0)"><image x="0" y="0" xlink:href="img_03.png" width="16" height="16" /></g></g></g><g clip-path="url(#5)"><g transform="matrix(0.49875 0 0 0.525 36.2 652.5325)"><g transform="matrix(1 0 0 1 0 0)"><image x="0" y="0" xlink:href="img_03.png" width="16" height="16" /></g></g></g><path transform="matrix(1 0 0 -1 0 780)" d="M28.98 234.84L180 234.84L180 234.84L180 206.76L180 206.76L28.98 206.76z" stroke="none" fill="#EC7C30" fill-rule="evenodd" /></g></g></g></svg>