<svg xmlns="http://www.w3.org/2000/svg" xmlns:xlink="http://www.w3.org/1999/xlink" id="body_3" preserveAspectRatio="xMinYMin meet" viewBox="0 0 720 1040"><defs><clipPath id="1"><path d="M0 780L0 0L0 0L540 0L540 0L540 780L540 780L0 780z" /></clipPath></defs><g transform="matrix(1.333333 0 0 1.333333 0 0)"><g><g clip-path="url(#1)"><path transform="matrix(1 0 0 -1 0 780)" d="M0 0L540 0L540 0L540 780L540 780L0 780z" stroke="none" fill="#EC7C30" fill-rule="winding" /><path transform="matrix(1 0 0 -1 0 780)" d="M360 626.82L511.02 626.82L511.02 626.82L511.02 598.74L511.02 598.74L360 598.74z" stroke="none" fill="#FFFFFF" fill-rule="evenodd" /><g transform="matrix(0.49875 0 0 0.525 497.2 211.45)"><g transform="matrix(1 0 0 1 0 0)"><image x="0" y="0" xlink:href="img_03.png" width="16" height="16" /></g></g><g transform="matrix(0.49875 0 0 0.525 497.2 240.25)"><g transform="matrix(1 0 0 1 0 0)"><image x="0" y="0" xlink:href="img_03.png" width="16" height="16" /></g></g><g transform="matrix(0.49875 0 0 0.525 497.2 269.05)"><g transform="matrix(1 0 0 1 0 0)"><image x="0" y="0" xlink:href="img_03.png" width="16" height="16" /></g></g><g transform="matrix(0.49875 0 0 0.525 497.2 297.85)"><g transform="matrix(1 0 0 1 0 0)"><image x="0" y="0" xlink:href="img_03.png" width="16" height="16" /></g></g></g></g></g></svg>