<svg xmlns="http://www.w3.org/2000/svg" xmlns:xlink="http://www.w3.org/1999/xlink" id="body_2" preserveAspectRatio="xMinYMin meet" viewBox="0 0 720 1040"><defs><clipPath id="1"><path d="M0 780L0 0L0 0L540 0L540 0L540 780L540 780L0 780z" /></clipPath></defs><g transform="matrix(1.333333 0 0 1.333333 0 0)"><g><g clip-path="url(#1)"><path transform="matrix(1 0 0 -1 0 780)" d="M0 0L540 0L540 0L540 780L540 780L0 780z" stroke="none" fill="#FFFFFF" fill-rule="winding" /><path transform="matrix(1 0 0 -1 0 780)" d="M28.98 641.82L180 641.82L180 641.82L180 613.74L180 613.74L28.98 613.74z" stroke="none" fill="#ED7D31" fill-rule="evenodd" /><path transform="matrix(1 0 0 -1 0 780)" d="M28.98 494.7L180 494.7L180 494.7L180 466.62L180 466.62L28.98 466.62z" stroke="none" fill="#ED7D31" fill-rule="evenodd" /><path transform="matrix(1 0 0 -1 0 780)" d="M28.98 371.76L180 371.76L180 371.76L180 343.68L180 343.68L28.98 343.68z" stroke="none" fill="#ED7D31" fill-rule="evenodd" /><path transform="matrix(1 0 0 -1 0 780)" d="M28.98 248.88L180 248.88L180 248.88L180 220.8L180 220.8L28.98 220.8z" stroke="none" fill="#ED7D31" fill-rule="evenodd" /><path transform="matrix(1 0 0 -1 0 780)" d="M292.5 654.72L292.5 119.97" stroke="#E7E6E6" stroke-width="0.48" fill="none" /><g transform="matrix(0.48 0 0 0.48 27.48 30.47998)"><g transform="matrix(1 0 0 1 0 0)"><image x="0" y="0" xlink:href="img_06.png" width="330" height="64" /></g></g></g></g></g></svg>