<svg xmlns="http://www.w3.org/2000/svg" xmlns:xlink="http://www.w3.org/1999/xlink" id="body_18" preserveAspectRatio="xMinYMin meet" viewBox="0 0 720 1040"><defs><clipPath id="1"><path d="M0 780L0 0L0 0L540 0L540 0L540 780L540 780L0 780z" /></clipPath><clipPath id="2"><path d="M0 314.76L540 314.76L540 314.76L540 -0.0009765625L540 -0.0009765625L0 -0.0009765625z" /></clipPath></defs><g transform="matrix(1.333333 0 0 1.333333 0 0)"><g><g clip-path="url(#1)"><path transform="matrix(1 0 0 -1 0 780)" d="M0 0L540 0L540 0L540 780L540 780L0 780z" stroke="none" fill="#FFFFFF" fill-rule="winding" /><g clip-path="url(#2)"><g transform="matrix(0.75 0 0 0.75 0 -0.2399902)"><g transform="matrix(1 0 0 1 0 0)"><image x="0" y="0" xlink:href="img_36.png" width="720" height="420" /></g></g></g></g></g></g></svg>