<svg xmlns="http://www.w3.org/2000/svg" xmlns:xlink="http://www.w3.org/1999/xlink" id="body_10" preserveAspectRatio="xMinYMin meet" viewBox="0 0 720 1040"><defs><clipPath id="1"><path d="M0 780L0 0L0 0L540 0L540 0L540 780L540 780L0 780z" /></clipPath><clipPath id="2"><path d="M28.98 30L316.8 30L316.8 30L316.8 178.8L316.8 178.8L28.98 178.8z" /></clipPath><clipPath id="3"><path d="M273.24 30L511.02 30L511.02 30L511.02 178.8L511.02 178.8L273.24 178.8z" /></clipPath></defs><g transform="matrix(1.333333 0 0 1.333333 0 0)"><g><g clip-path="url(#1)"><path transform="matrix(1 0 0 -1 0 780)" d="M0 0L540 0L540 0L540 780L540 780L0 780z" stroke="none" fill="#FFFFFF" fill-rule="winding" /><g clip-path="url(#2)"><g transform="matrix(0.5767936 0 0 0.5767441 28.98 30)"><g transform="matrix(1 0 0 1 0 0)"><image x="0" y="0" xlink:href="img_20.png" width="499" height="258" /></g></g></g><g clip-path="url(#3)"><g transform="matrix(0.3835161 0 0 0.3835052 273.24 30)"><g transform="matrix(1 0 0 1 0 0)"><image x="0" y="0" xlink:href="img_21.png" width="620" height="388" /></g></g></g><path transform="matrix(1 0 0 -1 0 780)" d="M271.74 751.5L512.52 751.5L512.52 751.5L512.52 599.7L512.52 599.7L271.74 599.7z" stroke="#FFFFFF" stroke-width="3" fill="none" /></g></g></g></svg>