<svg xmlns="http://www.w3.org/2000/svg" xmlns:xlink="http://www.w3.org/1999/xlink" id="body_16" preserveAspectRatio="xMinYMin meet" viewBox="0 0 720 1040"><defs><clipPath id="1"><path d="M0 780L0 0L0 0L540 0L540 0L540 780L540 780L0 780z" /></clipPath><clipPath id="2"><path d="M80.04 30L461.88 30L461.88 30L461.88 645.6L461.88 645.6L80.04 645.6z" /></clipPath></defs><g transform="matrix(1.333333 0 0 1.333333 0 0)"><g><g clip-path="url(#1)"><path transform="matrix(1 0 0 -1 0 780)" d="M0 0L540 0L540 0L540 780L540 780L0 780z" stroke="none" fill="#FFFFFF" fill-rule="winding" /><g clip-path="url(#2)"><g transform="matrix(0.4796984 0 0 0.4798129 80.03999 30)"><g transform="matrix(1 0 0 1 0 0)"><a href="img_32.png" target="_blank"><image x="0" y="0" xlink:href="img_32.png" width="796" height="1283" /></a></g></g></g></g></g></g></svg>