<svg xmlns="http://www.w3.org/2000/svg" xmlns:xlink="http://www.w3.org/1999/xlink" id="body_9" preserveAspectRatio="xMinYMin meet" viewBox="0 0 720 1040"><defs><clipPath id="1"><path d="M0 780L0 0L0 0L540 0L540 0L540 780L540 780L0 780z" /></clipPath><clipPath id="2"><path d="M28.98 30L511.02 30L511.02 30L511.02 431.4L511.02 431.4L28.98 431.4z" /></clipPath></defs><g transform="matrix(1.333333 0 0 1.333333 0 0)"><g><g clip-path="url(#1)"><path transform="matrix(1 0 0 -1 0 780)" d="M0 0L540 0L540 0L540 780L540 780L0 780z" stroke="none" fill="#FFFFFF" fill-rule="winding" /><g clip-path="url(#2)"><g transform="matrix(0.7531875 0 0 0.7530957 28.98 29.99994)"><g transform="matrix(1 0 0 1 0 0)"><image x="0" y="0" xlink:href="img_18.png" width="640" height="533" /></g></g></g></g></g></g></svg>