<svg xmlns="http://www.w3.org/2000/svg" xmlns:xlink="http://www.w3.org/1999/xlink" id="body_17" preserveAspectRatio="xMinYMin meet" viewBox="0 0 720 1040"><defs><clipPath id="1"><path d="M0 780L0 0L0 0L540 0L540 0L540 780L540 780L0 780z" /></clipPath><clipPath id="2"><path d="M0 0L540 0L540 0L540 780L540 780L0 780z" /></clipPath></defs><g transform="matrix(1.333333 0 0 1.333333 0 0)"><g><g clip-path="url(#1)"><g clip-path="url(#2)"><g transform="matrix(0.5090434 0 0 0.5078125 -16.2 0)"><g transform="matrix(1 0 0 1 0 0)"><image x="0" y="0" xlink:href="img_34.png" width="1124" height="1536" /></g></g></g><g transform="matrix(0.49875 0 0 0.525 367.2 282.5031)"><g transform="matrix(1 0 0 1 0 0)"><image x="0" y="0" xlink:href="img_03.png" width="16" height="16" /></g></g><g transform="matrix(0.49875 0 0 0.525 367.2 311.3031)"><g transform="matrix(1 0 0 1 0 0)"><image x="0" y="0" xlink:href="img_03.png" width="16" height="16" /></g></g><g transform="matrix(0.49875 0 0 0.525 367.2 340.1031)"><g transform="matrix(1 0 0 1 0 0)"><image x="0" y="0" xlink:href="img_03.png" width="16" height="16" /></g></g><path transform="matrix(1 0 0 -1 0 780)" d="M360 560.76L511.02 560.76L511.02 560.76L511.02 532.68L511.02 532.68L360 532.68z" stroke="none" fill="#EC7C30" fill-rule="evenodd" /></g></g></g></svg>